<?xml version="1.0" encoding="utf-8"?>
<!-- Generator: Adobe Illustrator 25.3.1, SVG Export Plug-In . SVG Version: 6.00 Build 0)  -->
<svg version="1.1" id="Layer_1" xmlns="http://www.w3.org/2000/svg" xmlns:xlink="http://www.w3.org/1999/xlink" x="0px" y="0px"
	 viewBox="0 0 420 96" style="enable-background:new 0 0 420 96;" xml:space="preserve">
<g id="Layer_1-2">
	<path d="M28.1,49.6l12.1,14.9l3.5-2.8L33.5,49.3l8.8-11.2l-3.6-2.6L28.1,49.6z M21.9,24.8v39h4.6v-40L21.9,24.8z"/>
	<path d="M47.8,56.4c-0.1-2.4,0.9-4.8,2.8-6.4c1.8-1.5,4.5-2.2,8.1-2.2H64V46c0-4.3-1.9-6.4-5.6-6.4c-1.3,0-2.5,0.2-3.8,0.5
		c-1.2,0.3-2.4,0.7-3.6,1.3l-1.3-3.3c1.4-0.8,2.8-1.4,4.3-1.8c1.5-0.4,3.1-0.6,4.6-0.6c6.5,0,9.7,3.5,9.7,10.4v17.7h-3.4l-0.6-3
		c-1.3,1.1-2.8,1.9-4.4,2.5c-1.4,0.6-2.9,0.9-4.4,0.9c-2.1,0.1-4.2-0.6-5.7-2.1C48.4,60.6,47.7,58.5,47.8,56.4 M56.4,60.5
		c0.7,0,1.3-0.1,2-0.2c0.7-0.2,1.3-0.4,2-0.7s1.3-0.6,1.9-1c0.6-0.4,1.1-0.8,1.6-1.2V51h-4.7c-2.4,0-4.2,0.4-5.3,1.3
		c-1.2,1-1.8,2.5-1.7,4C52.2,59.1,53.6,60.5,56.4,60.5"/>
	<path d="M81.1,63.8h-4.6v-39l4.6-1V63.8z M93.4,35.5l3.6,2.6l-8.8,11.2l10.2,12.4l-3.5,2.8L82.8,49.6L93.4,35.5z"/>
	<path d="M102.4,56.4c-0.1-2.4,0.9-4.8,2.8-6.4c1.8-1.5,4.5-2.2,8.1-2.2h5.3V46c0-4.3-1.9-6.4-5.6-6.4c-1.3,0-2.5,0.2-3.8,0.5
		c-1.2,0.3-2.5,0.7-3.6,1.3l-1.3-3.3c1.4-0.8,2.9-1.4,4.4-1.8c1.5-0.4,3.1-0.6,4.6-0.6c6.5,0,9.7,3.5,9.7,10.4v17.7h-3.4l-0.6-3
		c-1.3,1.1-2.8,1.9-4.4,2.6c-1.4,0.6-2.9,0.9-4.4,0.9c-2.1,0.1-4.2-0.6-5.7-2.1C103.1,60.6,102.3,58.5,102.4,56.4 M111.1,60.6
		c0.7,0,1.3-0.1,2-0.2c0.7-0.2,1.3-0.4,2-0.7s1.3-0.6,1.9-1s1.1-0.8,1.6-1.2V51h-4.8c-2.4,0-4.2,0.4-5.3,1.3c-1.2,1-1.8,2.5-1.7,4
		C106.9,59.1,108.3,60.5,111.1,60.6"/>
	<path d="M141.5,35.8c3.4-0.2,6.7,1.2,8.9,3.7s3.2,6,3.2,10.7c0,4.6-1.1,8.1-3.2,10.5c-2.2,2.4-5.2,3.7-9,3.7
		c-3.4,0.2-6.7-1.2-8.9-3.7s-3.2-6-3.2-10.5s1.1-8.1,3.3-10.7C134.8,37,138.1,35.6,141.5,35.8 M141.5,39.5c-2.2-0.1-4.3,0.9-5.5,2.7
		c-1.3,1.8-1.9,4.4-1.9,7.9s0.6,6.1,1.9,7.8c2.5,3.1,7,3.5,10,1.1c0.4-0.3,0.7-0.7,1.1-1.1c1.3-1.8,1.9-4.4,1.9-7.8s-0.6-6.1-1.9-8
		C145.7,40.4,143.6,39.4,141.5,39.5"/>
	<path d="M183.5,48.9c0,1.1-0.1,2.1-0.3,3.2h-16.5c0.2,4.4,2.6,6.7,7.6,6.7c2.4-0.1,4.8-0.6,7-1.5l1.6,4.8c-3,1.5-6.2,2.3-9.5,2.4
		c-9.3,0-13.9-5-13.9-14.7c0-9.2,4.8-14.7,12.4-14.7C179.4,35.1,183.5,40,183.5,48.9z M166.7,47.2h10c0-4.7-1.5-6.9-4.9-6.9
		C168.6,40.4,166.8,42.9,166.7,47.2L166.7,47.2z"/>
	<path d="M188.4,35.9h5l1,2.8c2.4-2.2,5.6-3.5,8.8-3.6c6.2,0,9.3,3.8,9.3,10.8v17.7h-7v-18c0-3.1-1.1-4.4-4.9-4.4
		c-1.8,0.1-3.5,0.4-5.2,1v21.4h-7L188.4,35.9z"/>
	<path d="M215.9,36.4l4.4-0.5v-5.6l7.1-1.5v7.1h8.3v5.3h-8.3v12c0,4.3,1.1,5.1,3.1,5.1c1.6,0,3.1-0.4,4.6-0.9l1.6,4.9
		c-2.5,1.4-5.3,2.1-8.1,2c-5.8,0-8.4-3.6-8.4-10.7V41.2h-4.4L215.9,36.4L215.9,36.4z"/>
	<path d="M263.1,48.9c0,1.1-0.1,2.1-0.3,3.2h-16.5c0.2,4.4,2.6,6.7,7.6,6.7c2.4-0.1,4.8-0.6,7-1.5l1.6,4.8c-2.9,1.5-6.2,2.3-9.5,2.4
		c-9.3,0-13.9-5-13.9-14.7c0-9.2,4.8-14.7,12.4-14.7C259,35.1,263.1,40,263.1,48.9z M246.3,47.2h10c0-4.7-1.5-6.9-4.9-6.9
		C248.2,40.4,246.4,42.9,246.3,47.2L246.3,47.2z"/>
	<path d="M274.7,42.8v20.9h-7V35.9h5l1.1,3c2.3-2.4,5.4-3.8,8.7-3.9c0.8,0,1.6,0.1,2.4,0.3l-0.7,6.8c-1.3-0.3-2.7-0.5-4-0.5
		C278.2,41.8,276.4,42,274.7,42.8z"/>
	<path d="M295.2,63.8v10.4h-7V35.9h5l0.8,2.3c2.1-2.1,5-3.2,7.9-3.2c7.2,0,10.5,5.4,10.5,14.2c0,9.2-5.2,15.1-12.8,15.1
		C298.2,64.4,296.7,64.2,295.2,63.8z M295.2,41.8v17.1c0.8,0.1,1.7,0.2,2.5,0.2c5.6,0,7.6-3.8,7.6-9.8c0-5.2-1.2-8.5-5.8-8.5
		C298,40.8,296.6,41.1,295.2,41.8L295.2,41.8z"/>
	<path d="M324.7,42.8v20.9h-7V35.9h5l1.1,3c2.3-2.4,5.4-3.8,8.7-3.9c0.8,0,1.6,0.1,2.4,0.3l-0.7,6.8c-1.3-0.3-2.7-0.5-4-0.5
		C328.2,41.8,326.4,42,324.7,42.8z"/>
	<path d="M336.4,26.9l5.1-5.2l5.1,5.2l-5.1,5.2L336.4,26.9z M345.1,35.9v27.7h-7V35.9H345.1z"/>
	<path d="M363,47.3c5.7,2,7.7,4.2,7.7,8.3c0,5.6-3.6,8.8-10.7,8.8c-3.5,0-6.9-0.7-10.2-2l1.4-5.5c2.8,1.1,5.8,1.8,8.8,1.8
		c2.9,0,4-1,4-2.6s-0.7-2.4-5.5-4c-5.7-2-7.7-3.9-7.7-8.6c0-5,4.1-8.5,10.2-8.5c3.3,0,6.5,0.7,9.5,2.1l-1.9,5.1
		c-2.1-1.1-4.5-1.6-6.9-1.7c-2.6,0-4.1,1.2-4.1,2.9C357.5,45,359,45.9,363,47.3z"/>
	<path d="M398.1,48.9c0,1.1-0.1,2.1-0.3,3.2h-16.5c0.2,4.4,2.6,6.7,7.6,6.7c2.4-0.1,4.8-0.6,7-1.5l1.6,4.8c-2.9,1.5-6.2,2.3-9.5,2.4
		c-9.3,0-13.9-5-13.9-14.7c0-9.2,4.8-14.7,12.4-14.7C394,35.1,398.1,40,398.1,48.9z M381.3,47.2h10c0-4.7-1.5-6.9-4.9-6.9
		C383.2,40.4,381.4,42.9,381.3,47.2L381.3,47.2z"/>
</g>
</svg>
